<?xml version="1.0" encoding="utf-8"?>
<!-- Generator: Adobe Illustrator 21.0.0, SVG Export Plug-In . SVG Version: 6.00 Build 0)  -->
<svg version="1.1" id="Layer_1" xmlns="http://www.w3.org/2000/svg" xmlns:xlink="http://www.w3.org/1999/xlink" x="0px" y="0px"
	viewBox="0 0 108 108" style="enable-background:new 0 0 603.6 108.2;" xml:space="preserve">
<style type="text/css">
	.logo-stripe{fill:#CF0A2C;}
</style>
<g>
	<path class="logo-stripe" d="M0,62.1c0.8,5.7,2.6,11.1,5.1,16l96.9,0c2.5-5,4.2-10.4,5.1-16L0,62.1z"/>
	<path class="logo-stripe" d="M5.1,30c-2.5,5-4.2,10.4-5.1,16l107,0c-0.9-5.7-2.6-11.1-5.1-16L5.1,30z"/>
	<path class="logo-stripe" d="M89.7,13.9C80.1,5.3,67.4,0,53.5,0C39.6,0,26.9,5.2,17.3,13.9L89.7,13.9z"/>
	<path class="logo-stripe" d="M17.3,94.3c9.6,8.7,22.3,13.9,36.2,13.9c13.9,0,26.6-5.3,36.2-13.9L17.3,94.3z"/>
</g>
</svg>
